<svg width="265" height="140" viewBox="0 0 265 140" fill="none" xmlns="http://www.w3.org/2000/svg">
<mask id="mask0" mask-type="alpha" maskUnits="userSpaceOnUse" x="-4" y="0" width="265" height="141">
<rect x="-3.14075" y="0.669922" width="264.127" height="139.419" fill="#C4C4C4"/>
</mask>
<g mask="url(#mask0)">
<g filter="url(#filter0_d)">
<path d="M139.104 174.515L166.673 223.591L194.248 279.686L183.102 285.359C135.522 309.324 85.0797 268.109 85.0797 268.109C75.8237 260.308 79.1129 253.9 79.1129 253.9C76.4397 232.593 49.4748 177.367 49.4748 177.367C41.0509 176.333 38.5892 174.089 38.5892 174.089C27.3541 152.003 29.5406 135.849 29.5406 135.849C29.6662 124.942 44.1189 121.89 44.1189 121.89L64.6934 118.593L65.3234 120.093C75.9554 122.3 86.0285 119.441 86.0285 119.441C93.1599 117.046 95.1139 119.015 95.1139 119.015L119.385 124.753C119.385 124.753 138.69 120.767 151.593 117.294L157.685 115.342C157.685 115.342 160.673 113.237 162.593 118.51C162.593 118.51 177.154 146.647 173.435 156.233C173.435 156.233 147.446 172.785 131.498 177.062" fill="white"/>
<path d="M81.757 53.4023C81.757 53.4023 105.163 88.7197 78.8023 104.25C78.8023 104.25 66.871 109.913 60.5904 111.995C60.5904 111.995 35.5611 60.6739 81.757 53.4023Z" fill="#E6ECFC"/>
<path d="M89.0037 68.9897C89.0037 68.9897 90.4583 71.1701 95.1455 71.8285C95.1455 71.8285 96.979 73.1603 90.6933 75.9314" fill="#E6ECFC"/>
<path d="M82.0094 102.139C82.0094 102.139 87.4461 116.37 90.0576 118.155C90.0576 118.155 75.1784 123.207 65.2454 119.969L61.7475 111.639" fill="#E6ECFC"/>
<path d="M68.3415 109.681C73.7052 107.4 78.9815 104.911 79.0647 104.875L79.1063 104.857C85.6236 101.006 89.7103 95.6835 91.2832 88.9261C93.2593 80.3279 90.7323 71.0423 88.233 64.7401C85.5238 57.9379 82.3632 53.0953 82.2866 53.0296C82.1401 52.7973 81.9038 52.7014 81.6193 52.7242C69.3455 54.6539 60.9001 59.8657 56.5324 68.2534C53.8746 73.3608 51.3974 82.5159 54.7544 97.046C56.7586 105.67 59.9077 112.236 59.9427 112.319C60.0651 112.611 60.4371 112.797 60.7697 112.655C62.8771 111.955 65.6388 110.83 68.3415 109.681ZM78.4567 103.661C77.8505 103.968 67.09 109.035 60.9277 111.164C59.2351 107.367 49.5828 84.6133 57.7664 68.858C61.8582 60.9804 69.8222 56.0225 81.4264 54.132C82.1941 55.3767 84.7662 59.6349 86.9856 65.2705C89.3975 71.3645 91.8611 80.3824 89.9879 88.6423C88.5245 94.9603 84.6173 100.01 78.4567 103.661Z" fill="#425CC7"/>
<path d="M90.9973 76.5388C94.2648 75.1002 95.9677 73.7868 96.0884 72.557C96.1695 71.9332 95.8348 71.4863 95.5635 71.307C95.487 71.2414 95.3688 71.1934 95.2681 71.1871C90.942 70.5716 89.5924 68.6413 89.5508 68.659L88.4499 69.4217C88.5024 69.5467 90.0577 71.7334 94.7382 72.4928C94.6835 72.7125 94.1733 73.7151 90.4484 75.3482L90.9973 76.5388Z" fill="#425CC7"/>
<path d="M90.344 118.721C90.5519 118.633 90.7073 118.42 90.762 118.2C90.7993 117.939 90.6943 117.689 90.4822 117.534C88.7018 116.327 84.8519 107.509 82.6747 101.857L81.4101 102.346C81.9107 103.655 86.0445 114.316 88.8283 117.795C85.3454 118.835 73.873 121.848 65.771 119.354L62.3956 111.315L61.1485 111.846L64.6463 120.176C64.7163 120.342 64.8694 120.473 65.0466 120.545C69.2594 121.944 74.8311 122.029 81.4948 120.865C86.4805 120.021 90.1187 118.768 90.285 118.697C90.3025 118.739 90.3025 118.739 90.344 118.721Z" fill="#425CC7"/>
<path d="M56.8614 120.828C56.903 120.81 56.903 120.81 56.9446 120.792C56.9861 120.775 61.6716 118.046 66.7403 113.779C73.584 108.021 77.9223 102.248 79.6415 96.6562C79.9896 95.9681 82.6585 90.0705 78.1044 84.5932C78.0869 84.5515 78.0278 84.5275 78.0103 84.4859C75.6718 82.5344 69.7984 76.8325 70.8911 73.7165C71.4341 72.209 73.7734 71.3615 77.7426 71.2447C77.9439 71.2573 78.1343 71.1273 78.2656 70.9732C78.421 70.7598 82.4902 65.3961 84.6626 58.4331C87.5797 49.0421 85.6344 41.3752 79.0235 36.1342C78.9469 36.0686 78.8878 36.0446 78.7697 35.9967C78.5509 35.9424 54.4705 30.1764 33.5069 44.7867C32.1896 45.1505 22.0536 48.0861 17.5107 57.923C13.6946 66.2233 14.9979 76.9127 21.423 89.6467C21.5696 89.879 34.3549 112.625 56.3581 120.796C56.5354 120.868 56.6951 120.899 56.8614 120.828ZM77.1151 85.5049C81.3105 90.5947 78.563 95.8383 78.4251 96.0933C78.401 96.1526 78.3594 96.1703 78.3769 96.212C74.7502 108.114 58.8402 118.071 56.527 119.448C35.1451 111.356 22.7229 89.2412 22.5938 89.0506C16.3852 76.7156 15.073 66.4718 18.703 58.5452C23.1978 48.827 33.8238 46.1249 33.907 46.0896C33.9901 46.0542 34.0733 46.0189 34.1564 45.9835C53.8113 32.2243 76.3057 36.8972 78.2989 37.3262C84.4263 42.2326 86.1158 49.1736 83.3739 58.0482C81.5518 63.9785 78.1853 68.7979 77.36 69.9836C72.8635 70.1282 70.3447 71.2484 69.6199 73.3733C68.0389 77.7772 75.9841 84.5619 77.1151 85.5049Z" fill="#425CC7"/>
<path d="M56.6033 120.446L56.6865 120.411C56.8769 120.281 75.2202 109.584 79.1864 96.5059C79.4141 96.1145 82.2186 90.3066 77.6995 84.9125C77.5638 84.8229 69.017 77.6557 70.4119 73.6256C71.0097 71.8984 73.4562 70.9562 77.6683 70.8343L77.769 70.8406L77.8346 70.7636C77.8587 70.7043 81.9935 65.2635 84.1834 58.3421C87.0457 49.1708 85.1529 41.6289 78.6951 36.5192L78.6186 36.4536C78.3998 36.3993 54.4375 30.6813 33.6403 45.2209C32.8809 45.3965 22.3599 48.3485 17.8585 58.1677C14.0906 66.3493 15.3831 76.8961 21.7557 89.5051C21.9022 89.7374 34.6175 112.317 56.4611 120.458L56.6033 120.446ZM72.3227 71.2909C71.1169 71.8037 70.3422 72.5259 70.04 73.44C68.5246 77.7669 77.0956 84.8748 77.4784 85.203C81.9209 90.5313 78.8801 96.2434 78.8561 96.3027L78.832 96.3621C75.0476 108.822 58.0215 119.156 56.5947 119.959C34.9699 111.872 22.3421 89.5012 22.2371 89.2513C15.917 76.7673 14.6354 66.3632 18.3136 58.3179C22.9047 48.3624 33.7145 45.6312 33.8568 45.6198L33.8983 45.6021L33.9399 45.5844C54.1244 31.4527 77.356 36.5977 78.5506 36.8753C84.9144 41.8776 86.7088 49.0686 83.8531 58.1389C81.8624 64.4846 78.1916 69.6298 77.6597 70.347C75.3491 70.4458 73.6116 70.7428 72.3227 71.2909Z" fill="#425CC7"/>
<path d="M78.6053 36.6565C78.6053 36.6565 54.7569 30.7427 33.8108 45.3947C33.8108 45.3947 3.57831 52.7521 22.0291 89.3405C22.0291 89.3405 34.5781 111.991 56.623 120.144C56.623 120.144 75.0429 109.512 79.0748 96.3578C79.0748 96.3578 82.2644 90.5334 77.6337 84.9904C77.6337 84.9904 60.6625 70.9476 77.7471 70.5562C77.7055 70.5738 94.2138 48.9711 78.6053 36.6565Z" fill="#425CC7"/>
<path d="M78.6053 36.6565C78.6053 36.6565 54.7569 30.7427 33.8108 45.3947C33.8108 45.3947 3.57831 52.7521 22.0291 89.3405C22.0291 89.3405 34.5781 111.991 56.623 120.144C56.623 120.144 75.0429 109.512 79.0748 96.3578C79.0748 96.3578 82.2644 90.5334 77.6337 84.9904C77.6337 84.9904 60.6625 70.9476 77.7471 70.5562C77.7055 70.5738 94.2138 48.9711 78.6053 36.6565Z" fill="#425CC7"/>
<path d="M161.61 118.779L173.95 113.531L202.601 72.6062C202.601 72.6062 203.566 65.3096 208.064 63.5765L211.715 57.9522C211.715 57.9522 212.981 57.5935 212.969 59.5146C212.969 59.5146 210.857 64.9039 209.985 66.6518C209.985 66.6518 213.294 70.3342 212.716 73.155C212.716 73.155 210.556 77.9059 207.463 78.5624C207.463 78.5624 206.165 78.0962 205.573 77.8094C204.98 77.5225 204.055 78.9936 204.055 78.9936L181.631 131.822C181.631 131.822 179.06 135.37 175.085 138.198L170.838 140.004" fill="#E6ECFC"/>
<path d="M171.857 140.422L175.954 138.681C175.979 138.67 175.979 138.67 176.005 138.659C179.802 135.914 182.308 132.41 182.338 132.337C182.364 132.327 182.368 132.265 182.368 132.265L203.479 80.2267C203.851 79.593 204.363 79.0777 204.556 79.1743C205.18 79.5037 206.395 79.9387 206.442 79.9782C206.514 80.0067 206.54 79.9958 206.592 79.9739C209.68 79.3744 211.745 74.749 211.81 74.5428C211.836 74.5319 211.841 74.4704 211.845 74.409C212.289 72.1388 210.61 69.2247 209.336 67.5657C210.263 65.5063 211.877 61.2514 211.942 61.0452C211.972 60.9729 211.977 60.9114 211.96 60.7995C211.961 59.7883 211.659 59.1432 211.387 58.7833C210.778 57.9121 210.066 58.096 209.916 58.1003C209.864 58.1222 209.813 58.1441 209.782 58.2165L206.333 63.6682C202.246 65.2872 201.201 71.6198 201.046 72.6968L173.795 112.715L161.97 117.744C161.764 117.831 161.732 118.261 161.901 118.665C162.071 119.069 162.4 119.345 162.606 119.257L174.508 114.196C174.559 114.174 174.585 114.163 174.615 114.091L201.953 73.917C201.984 73.8446 202.014 73.7722 202.018 73.7108C202.023 73.6494 202.912 66.7288 207.02 65.1602C207.072 65.1383 207.124 65.1164 207.128 65.055L210.552 59.6142C210.676 59.6209 210.8 59.6275 210.873 59.6561C210.894 59.7066 210.911 59.8184 210.901 59.9413C210.619 60.7155 208.884 65.2599 208.118 66.8346C208.058 66.9793 208.044 67.1636 208.103 67.3764C208.162 67.5892 208.268 67.8415 208.43 68.0105C208.451 68.061 211.188 71.1796 210.826 73.3555C210.614 73.8622 208.697 77.8295 206.059 78.4161C205.768 78.3019 204.823 77.9306 204.339 77.7198C203.57 77.3333 202.81 78.489 202.525 78.9671C202.525 78.9671 202.5 78.978 202.521 79.0285L181.414 131.005C181.164 131.35 178.78 134.564 175.245 137.138L171.149 138.88C170.943 138.968 170.911 139.397 171.08 139.801C171.25 140.205 171.651 140.51 171.857 140.422Z" fill="#425CC7"/>
<path d="M179.216 287.895C180.63 287.294 182.027 286.651 183.406 285.966L194.51 280.311C194.826 280.128 194.953 279.73 194.813 279.397L167.238 223.301L140.032 174.857C155.283 168.568 173.59 156.953 173.839 156.847C173.946 156.752 174.054 156.657 174.102 156.538C175.705 152.419 174.328 144.705 170.059 133.604C167.054 125.747 163.521 118.852 163.235 118.286C162.443 116.167 161.355 114.862 160.049 114.435C158.802 114.032 157.755 114.576 157.44 114.759L151.431 116.675C139.312 119.914 121.235 123.672 119.431 124.046L95.4205 118.344C94.7663 117.837 92.2628 116.544 85.8318 118.738C85.7486 118.774 76.0324 121.432 65.7899 119.452L65.2999 118.286C65.1775 117.994 64.8645 117.832 64.58 117.855L44.0055 121.153C43.8216 121.182 29.0296 124.476 28.8602 135.745C28.8098 136.209 28.3272 140.196 29.1549 146.719C29.9192 152.975 32.1052 162.85 37.9656 174.354C38.0006 174.437 38.0771 174.503 38.0946 174.545C38.1887 174.652 40.7336 176.86 48.9737 177.924C51.2005 182.526 75.7348 233.481 78.3557 253.73C77.8323 254.935 75.8477 261.181 84.585 268.564C84.7207 268.654 97.5086 279.03 115.957 286.311C126.818 290.581 137.479 292.973 147.619 293.425C158.807 293.922 169.401 292.069 179.216 287.895ZM193.296 279.403L182.756 284.769C172.032 290.164 160.243 292.673 147.746 292.094C137.707 291.648 127.224 289.329 116.522 285.088C98.2683 277.921 85.6337 267.677 85.4805 267.545C76.8197 260.227 79.5659 254.394 79.6623 254.157C79.7104 254.038 79.7411 253.878 79.7477 253.777C78.6514 244.863 73.3219 229.253 63.8749 207.34C56.8909 191.058 50.0923 177.202 50.0223 177.036C49.9348 176.827 49.7225 176.672 49.5212 176.66C42.3403 175.784 39.5853 174.009 39.0842 173.633C33.3879 162.402 31.2478 152.754 30.4944 146.641C29.6558 139.974 30.1799 135.97 30.1624 135.928C30.1449 135.887 30.1865 135.869 30.169 135.827C30.203 131.589 32.5371 128.043 37.1406 125.349C40.6322 123.275 44.1802 122.503 44.1802 122.503L64.2032 119.292L64.6231 120.292C64.7106 120.501 64.8813 120.674 65.0826 120.686C75.7562 122.876 85.722 120.111 86.1313 120.035C92.6629 117.847 94.5601 119.447 94.5776 119.488C94.6542 119.554 94.7899 119.644 94.8905 119.65L119.179 125.43C119.28 125.436 119.38 125.443 119.481 125.449C119.665 125.42 138.953 121.392 151.748 118.014L157.84 116.062C157.923 116.026 157.965 116.009 158.048 115.973C158.09 115.956 158.786 115.512 159.62 115.747C160.53 116.048 161.311 117.091 161.969 118.775C161.987 118.817 161.987 118.817 162.004 118.858C162.039 118.942 165.666 125.945 168.794 134.093C172.825 144.509 174.215 152.021 172.916 155.815C170.512 157.328 146.275 172.447 131.354 176.484C131.004 176.584 130.776 176.976 130.874 177.327C130.973 177.678 131.362 177.905 131.712 177.805C133.914 177.213 136.313 176.389 138.785 175.387L166.042 223.957L193.296 279.403Z" fill="#425CC7"/>
</g>
</g>
<defs>
<filter id="filter0_d" x="1.37738" y="28.8301" width="217.592" height="278.674" filterUnits="userSpaceOnUse" color-interpolation-filters="sRGB">
<feFlood flood-opacity="0" result="BackgroundImageFix"/>
<feColorMatrix in="SourceAlpha" type="matrix" values="0 0 0 0 0 0 0 0 0 0 0 0 0 0 0 0 0 0 127 0"/>
<feMorphology radius="2" operator="dilate" in="SourceAlpha" result="effect1_dropShadow"/>
<feOffset dx="-4" dy="4"/>
<feGaussianBlur stdDeviation="4"/>
<feColorMatrix type="matrix" values="0 0 0 0 0 0 0 0 0 0 0 0 0 0 0 0 0 0 0.25 0"/>
<feBlend mode="normal" in2="BackgroundImageFix" result="effect1_dropShadow"/>
<feBlend mode="normal" in="SourceGraphic" in2="effect1_dropShadow" result="shape"/>
</filter>
</defs>
</svg>
