<svg  viewBox="0 0 427 209" fill="none" xmlns="http://www.w3.org/2000/svg">
<mask id="mask0" mask-type="alpha" maskUnits="userSpaceOnUse" x="25" y="1" width="396" height="208">
<rect x="25.2593" y="1" width="395.727" height="208" fill="#C4C4C4"/>
</mask>
<g mask="url(#mask0)">
<g filter="url(#filter0_d)">
<path d="M238.321 260.377L279.674 333.653L321.049 417.403L304.369 425.851C233.17 461.536 157.583 399.954 157.583 399.954C143.713 388.298 148.627 378.741 148.627 378.741C144.591 346.942 104.132 264.491 104.132 264.491C91.5183 262.934 87.8291 259.583 87.8291 259.583C70.9731 226.608 74.2212 202.506 74.2212 202.506C74.392 186.231 96.0258 181.7 96.0258 181.7L126.825 176.812L127.77 179.051C143.692 182.361 158.769 178.111 158.769 178.111C169.442 174.55 172.371 177.49 172.371 177.49L208.719 186.091C208.719 186.091 237.616 180.174 256.929 175.012L266.047 172.109C266.047 172.109 270.517 168.972 273.401 176.843C273.401 176.843 295.244 218.853 289.692 233.152C289.692 233.152 250.808 257.809 226.937 264.166" fill="white"/>
<path d="M152.404 79.6723C152.404 79.6723 187.511 132.42 148.06 155.557C148.06 155.557 130.201 163.99 120.799 167.087C120.799 167.087 83.2365 90.4517 152.404 79.6723Z" fill="#E6ECFC"/>
<path d="M163.313 102.92C163.313 102.92 165.494 106.177 172.514 107.167C172.514 107.167 175.262 109.157 165.854 113.283" fill="#E6ECFC"/>
<path d="M152.813 152.382C152.813 152.382 160.979 173.634 164.893 176.304C164.893 176.304 142.614 183.821 127.731 178.972L122.479 166.531" fill="#E6ECFC"/>
<path d="M132.403 163.646C140.432 160.25 148.329 156.543 148.454 156.49L148.516 156.464C158.27 150.726 164.381 142.789 166.726 132.706C169.672 119.877 165.873 106.014 162.12 96.6045C158.052 86.4481 153.312 79.2156 153.197 79.1175C152.977 78.7706 152.623 78.627 152.197 78.6606C133.82 81.5212 121.181 89.2862 114.654 101.798C110.682 109.416 106.986 123.076 112.036 144.767C115.051 157.641 119.777 167.446 119.83 167.57C120.014 168.006 120.571 168.283 121.069 168.073C124.224 167.032 128.358 165.357 132.403 163.646ZM147.542 154.677C146.634 155.134 130.528 162.679 121.303 165.848C118.763 160.177 104.272 126.203 116.502 102.702C122.617 90.9514 134.536 83.5644 151.91 80.7613C153.062 82.6203 156.921 88.9796 160.253 97.3942C163.875 106.493 167.578 119.956 164.786 132.281C162.605 141.708 156.761 149.238 147.542 154.677Z" fill="#425CC7"/>
<path d="M166.31 114.19C171.201 112.048 173.748 110.09 173.927 108.255C174.048 107.324 173.546 106.657 173.139 106.389C173.025 106.291 172.848 106.219 172.697 106.21C166.218 105.284 164.194 102.401 164.132 102.427L162.484 103.564C162.563 103.751 164.895 107.017 171.905 108.157C171.824 108.485 171.061 109.981 165.486 112.412L166.31 114.19Z" fill="#425CC7"/>
<path d="M165.323 177.149C165.634 177.017 165.867 176.699 165.948 176.371C166.004 175.981 165.846 175.608 165.528 175.376C162.86 173.572 157.079 160.402 153.809 151.961L151.916 152.689C152.667 154.643 158.876 170.565 163.051 175.764C157.836 177.31 140.657 181.79 128.517 178.054L123.449 166.048L121.581 166.838L126.834 179.279C126.939 179.527 127.168 179.724 127.434 179.831C133.746 181.927 142.092 182.062 152.072 180.334C159.538 179.082 164.986 177.218 165.235 177.113C165.261 177.175 165.261 177.175 165.323 177.149Z" fill="#425CC7"/>
<path d="M115.227 180.29C115.289 180.264 115.289 180.264 115.351 180.238C115.413 180.211 122.426 176.146 130.01 169.786C140.25 161.203 146.737 152.594 149.303 144.25C149.823 143.224 153.811 134.426 146.982 126.244C146.956 126.181 146.867 126.146 146.841 126.083C143.336 123.167 134.531 114.648 136.163 109.999C136.973 107.75 140.475 106.488 146.419 106.32C146.721 106.34 147.006 106.146 147.202 105.916C147.434 105.598 153.52 97.5988 156.762 87.2099C161.116 73.1984 158.191 61.7524 148.282 53.9197C148.167 53.8216 148.079 53.7858 147.902 53.714C147.574 53.6327 111.503 44.9886 80.1319 66.7614C78.1597 67.3022 62.9852 71.6675 56.1974 86.3419C50.4957 98.7241 52.4644 114.68 62.1065 133.696C62.3263 134.043 81.5089 168.012 114.473 180.243C114.739 180.35 114.978 180.396 115.227 180.29ZM145.502 127.603C151.793 135.206 147.687 143.028 147.481 143.408C147.445 143.497 147.382 143.523 147.409 143.585C141.996 161.344 118.186 176.18 114.724 178.23C82.6903 166.119 64.0524 133.093 63.8588 132.808C54.5416 114.388 52.5603 99.0972 57.9839 87.2725C64.6998 72.7752 80.6086 68.7591 80.7331 68.7065C80.8576 68.6539 80.9821 68.6012 81.1065 68.5486C110.519 48.044 144.213 55.0542 147.199 55.6975C156.383 63.0302 158.924 73.3924 154.832 86.6334C152.112 95.4815 147.078 102.669 145.844 104.438C139.111 104.646 135.341 106.314 134.258 109.484C131.898 116.055 143.807 126.194 145.502 127.603Z" fill="#425CC7"/>
<path d="M114.839 179.721L114.964 179.668C115.249 179.475 142.702 163.538 148.621 144.025C148.961 143.442 153.152 134.778 146.376 126.72C146.173 126.586 133.362 115.875 135.445 109.862C136.337 107.285 140 105.883 146.307 105.708L146.458 105.717L146.556 105.603C146.592 105.514 152.776 97.4003 156.044 87.0735C160.316 73.3899 157.47 62.1305 147.791 54.494L147.676 54.3959C147.348 54.3146 111.454 45.7422 80.3322 67.4097C79.1953 67.6706 63.4441 72.0599 56.7185 86.7079C51.0888 98.9131 53.041 114.656 62.6042 133.485C62.8241 133.832 81.9016 167.552 114.626 179.738L114.839 179.721ZM138.303 106.381C136.498 107.144 135.339 108.221 134.887 109.585C132.625 116.04 145.472 126.662 146.046 127.153C152.707 135.113 148.162 143.633 148.126 143.722L148.09 143.81C142.442 162.401 116.961 177.797 114.826 178.994C82.4287 166.89 63.4824 133.481 63.3248 133.107C53.8403 114.465 51.9047 98.9346 57.4003 86.9328C64.26 72.0813 80.4441 68.0222 80.657 68.0055L80.7193 67.9791L80.7815 67.9528C110.987 46.8931 145.785 54.609 147.575 55.0252C157.113 62.5013 159.812 73.2368 155.549 86.7697C152.578 96.2375 147.089 103.911 146.294 104.981C142.833 105.124 140.232 105.565 138.303 106.381Z" fill="#425CC7"/>
<path d="M147.657 54.6972C147.657 54.6972 111.933 45.8329 80.588 67.6679C80.588 67.6679 35.3247 78.6009 63.0137 133.239C63.0137 133.239 81.8423 167.064 114.869 179.269C114.869 179.269 142.437 163.43 148.454 143.803C148.454 143.803 153.221 135.115 146.278 126.835C146.278 126.835 120.84 105.849 146.425 105.291C146.363 105.318 171.051 73.1017 147.657 54.6972Z" fill="#425CC7"/>
<path d="M147.657 54.6972C147.657 54.6972 111.933 45.8329 80.588 67.6679C80.588 67.6679 35.3247 78.6009 63.0137 133.239C63.0137 133.239 81.8423 167.064 114.869 179.269C114.869 179.269 142.437 163.43 148.454 143.803C148.454 143.803 153.221 135.115 146.278 126.835C146.278 126.835 120.84 105.849 146.425 105.291C146.363 105.318 171.051 73.1017 147.657 54.6972Z" fill="#425CC7"/>
<path d="M273.392 176.918L302.144 164.758L380.151 96.5789C380.151 96.5789 385.096 86.0569 395.506 81.8742L405.607 72.6173C405.607 72.6173 408.486 71.6194 407.708 74.2942C407.708 74.2942 401.028 82.6178 398.458 85.3907C398.458 85.3907 404.175 89.2038 401.819 93.3523C401.819 93.3523 395.285 100.807 388.337 102.94C388.337 102.94 385.712 102.803 384.543 102.638C383.373 102.473 380.796 104.883 380.796 104.883L311.598 187.15C311.598 187.15 304.647 193.096 294.939 198.594L285.044 202.779" fill="#E6ECFC"/>
<path d="M285.412 203.65L295.307 199.465C295.369 199.439 295.369 199.439 295.431 199.412C305.076 193.94 312.152 187.942 312.25 187.827C312.313 187.801 312.349 187.712 312.349 187.712L381.396 105.435C382.493 104.385 383.855 103.442 384.245 103.497C385.503 103.698 388.04 103.798 388.128 103.834C388.279 103.844 388.341 103.817 388.465 103.765C395.626 101.616 402.187 94.2229 402.419 93.9047C402.481 93.8783 402.517 93.7898 402.553 93.7013C404.497 90.3135 401.961 86.9142 399.807 85.1129C402.744 81.8183 408.138 75.1384 408.371 74.8202C408.469 74.7053 408.505 74.6168 408.515 74.4661C408.939 73.0402 408.536 72.2579 408.077 71.8656C407.08 70.8944 405.409 71.4543 405.072 71.5237C404.947 71.5764 404.823 71.629 404.725 71.7438L394.722 80.8859C384.899 84.8939 379.906 94.2629 379.108 95.8467L301.36 163.77L272.795 175.851C272.297 176.062 272.045 176.682 272.255 177.179C272.465 177.677 273.085 177.928 273.583 177.717L302.334 165.557C302.459 165.504 302.521 165.478 302.619 165.363L380.626 97.1839C380.724 97.0691 380.822 96.9542 380.858 96.8657C380.894 96.7772 385.785 86.6451 395.634 82.6993C395.759 82.6466 395.883 82.594 395.919 82.5055L405.86 73.3897C406.135 73.3466 406.41 73.3035 406.561 73.3131C406.587 73.3753 406.577 73.526 406.505 73.7031C405.55 74.9137 399.762 82.053 397.389 84.5963C397.192 84.826 397.084 85.0915 397.127 85.3667C397.17 85.6418 397.301 85.9528 397.593 86.1226C397.619 86.1848 402.435 89.4261 400.714 92.6464C400.027 93.4503 394.075 99.8528 387.927 101.793C387.324 101.755 385.364 101.631 384.371 101.538C382.811 101.318 380.628 103.268 379.789 104.062C379.789 104.062 379.727 104.088 379.753 104.151L310.742 186.339C310.038 186.93 303.355 192.469 294.368 197.589L284.473 201.774C283.975 201.985 283.723 202.605 283.933 203.102C284.143 203.6 284.914 203.86 285.412 203.65Z" fill="#425CC7"/>
<path d="M298.556 429.629C300.672 428.734 302.762 427.777 304.825 426.757L321.443 418.336C321.914 418.063 322.104 417.47 321.894 416.972L280.519 333.222L239.711 260.889C262.534 251.53 289.925 234.226 290.299 234.068C290.459 233.927 290.619 233.786 290.691 233.609C293.085 227.464 291.012 215.951 284.602 199.379C280.091 187.651 274.79 177.355 274.36 176.511C273.172 173.348 271.542 171.398 269.585 170.759C267.716 170.156 266.151 170.965 265.679 171.238L256.686 174.088C238.546 178.902 211.486 184.481 208.787 185.036L172.829 176.49C171.849 175.732 168.098 173.799 158.473 177.063C158.349 177.116 143.806 181.067 128.468 178.096L127.732 176.355C127.548 175.919 127.08 175.678 126.654 175.711L95.8547 180.599C95.5795 180.642 73.4381 185.535 73.2022 202.351C73.1274 203.042 72.4111 208.99 73.6607 218.726C74.8149 228.062 78.1034 242.801 86.8957 259.977C86.9482 260.102 87.063 260.2 87.0892 260.262C87.2302 260.423 91.0439 263.722 103.383 265.321C106.724 272.193 143.537 348.268 147.493 378.487C146.711 380.284 143.75 389.602 156.843 400.633C157.047 400.767 176.209 416.271 203.842 427.165C220.11 433.554 236.074 437.14 251.257 437.83C268.009 438.59 283.867 435.842 298.556 429.629ZM319.623 416.98L303.851 424.97C287.804 433.004 270.157 436.728 251.445 435.844C236.414 435.163 220.715 431.686 204.686 425.341C177.345 414.617 158.412 399.31 158.182 399.114C145.204 388.18 149.306 379.48 149.45 379.126C149.522 378.949 149.568 378.71 149.577 378.559C147.922 365.256 139.918 341.954 125.739 309.24C115.257 284.933 105.056 264.247 104.951 263.998C104.82 263.687 104.502 263.455 104.2 263.436C93.4479 262.118 89.3202 259.465 88.5693 258.903C80.0231 242.136 76.8038 227.734 75.6661 218.611C74.3999 208.662 75.1784 202.688 75.1522 202.626C75.1259 202.563 75.1881 202.537 75.1619 202.475C75.2061 196.151 78.6951 190.863 85.5833 186.85C90.8075 183.76 96.1185 182.614 96.1185 182.614L126.092 177.855L126.722 179.348C126.853 179.659 127.109 179.917 127.411 179.937C143.395 183.22 158.311 179.111 158.924 178.999C168.7 175.744 171.543 178.134 171.569 178.196C171.684 178.294 171.887 178.428 172.038 178.438L208.411 187.101C208.562 187.111 208.713 187.12 208.864 187.13C209.139 187.087 238.01 181.108 257.163 176.086L266.28 173.183C266.405 173.131 266.467 173.104 266.592 173.052C266.654 173.025 267.695 172.365 268.944 172.716C270.308 173.166 271.479 174.724 272.467 177.238C272.493 177.301 272.493 177.301 272.52 177.363C272.572 177.487 278.013 187.943 282.709 200.107C288.76 215.657 290.853 226.869 288.914 232.527C285.318 234.782 249.054 257.304 226.72 263.305C226.196 263.453 225.856 264.037 226.004 264.561C226.151 265.085 226.735 265.424 227.259 265.276C230.555 264.395 234.146 263.17 237.844 261.679L278.731 334.198L319.623 416.98Z" fill="#425CC7"/>
</g>
</g>
<defs>
<filter id="filter0_d" x="39.0188" y="45.9536" width="375.675" height="406" filterUnits="userSpaceOnUse" color-interpolation-filters="sRGB">
<feFlood flood-opacity="0" result="BackgroundImageFix"/>
<feColorMatrix in="SourceAlpha" type="matrix" values="0 0 0 0 0 0 0 0 0 0 0 0 0 0 0 0 0 0 127 0"/>
<feMorphology radius="2" operator="dilate" in="SourceAlpha" result="effect1_dropShadow"/>
<feOffset dx="-4" dy="4"/>
<feGaussianBlur stdDeviation="4"/>
<feColorMatrix type="matrix" values="0 0 0 0 0 0 0 0 0 0 0 0 0 0 0 0 0 0 0.25 0"/>
<feBlend mode="normal" in2="BackgroundImageFix" result="effect1_dropShadow"/>
<feBlend mode="normal" in="SourceGraphic" in2="effect1_dropShadow" result="shape"/>
</filter>
</defs>
</svg>
