<svg width="16" height="16" viewBox="0 0 16 16" fill="none" xmlns="http://www.w3.org/2000/svg">
<path d="M16 3.03043C15.5826 3.65652 15.0377 4.22464 14.3652 4.73478V5.15217C14.3652 6.65942 14.0174 8.1087 13.3217 9.5C12.6261 10.8913 11.5478 12.0681 10.087 13.0304C8.62609 13.9928 6.94493 14.4739 5.04348 14.4739C3.18841 14.4739 1.50725 13.987 0 13.013C0.162319 13.0362 0.428986 13.0478 0.8 13.0478C2.33043 13.0478 3.68696 12.5841 4.86957 11.6565C4.15072 11.6333 3.51304 11.413 2.95652 10.9957C2.4 10.5783 2.01739 10.0333 1.8087 9.36087C1.92464 9.40725 2.12174 9.43043 2.4 9.43043C2.70145 9.43043 2.9913 9.39565 3.26957 9.32609C2.50435 9.16377 1.87826 8.78116 1.3913 8.17826C0.904348 7.57536 0.66087 6.87971 0.66087 6.0913V6.05652C1.07826 6.28841 1.56522 6.42754 2.12174 6.47391C1.14783 5.80145 0.66087 4.88551 0.66087 3.72609C0.66087 3.16957 0.811594 2.62464 1.11304 2.0913C2.89855 4.27101 5.15942 5.40725 7.89565 5.5C7.82609 5.2913 7.7913 5.04783 7.7913 4.76956C7.7913 3.86522 8.11014 3.0942 8.74783 2.45652C9.38551 1.81884 10.1681 1.5 11.0957 1.5C12.0464 1.5 12.8348 1.83623 13.4609 2.5087C14.1565 2.36957 14.8522 2.11449 15.5478 1.74348C15.3159 2.5087 14.8406 3.11159 14.1217 3.55217C14.771 3.45942 15.3971 3.28551 16 3.03043Z" fill="#88bf40"/>
</svg>
