<svg width="16" height="16" viewBox="0 0 16 16" fill="none" xmlns="http://www.w3.org/2000/svg">
<g clip-path="url(#clip0)">
<path d="M3.62667 1.70667C3.62667 2.18074 3.45481 2.5837 3.11111 2.91556C2.76741 3.24741 2.32296 3.41333 1.77778 3.41333C1.2563 3.41333 0.82963 3.24741 0.497778 2.91556C0.165926 2.5837 0 2.18074 0 1.70667C0 1.20889 0.165926 0.8 0.497778 0.48C0.82963 0.16 1.26815 0 1.81333 0C2.35852 0 2.79111 0.16 3.11111 0.48C3.43111 0.8 3.60296 1.20889 3.62667 1.70667Z" fill="#88bf40"/>
<path d="M0.106689 15.7513V4.76465H3.52002V15.7513H0.106689H0.106689Z" fill="#88bf40"/>
<path d="M5.5467 8.28451C5.5467 7.26525 5.52299 6.09192 5.47559 4.76451H8.4267L8.60447 6.2934H8.67559C9.3867 5.10822 10.5126 4.51562 12.0534 4.51562C13.2385 4.51562 14.1926 4.91266 14.9156 5.70674C15.6385 6.50081 16 7.68007 16 9.24451V15.7512H12.5867V9.67118C12.5867 8.08303 12.006 7.28896 10.8445 7.28896C10.0148 7.28896 9.4341 7.71562 9.10225 8.56896C9.03114 8.71118 8.99559 8.99563 8.99559 9.42229V15.7512H5.5467V8.28451Z" fill="#88bf40"/>
<path d="M3.62667 1.70667C3.62667 2.18074 3.45481 2.5837 3.11111 2.91556C2.76741 3.24741 2.32296 3.41333 1.77778 3.41333C1.2563 3.41333 0.82963 3.24741 0.497778 2.91556C0.165926 2.5837 0 2.18074 0 1.70667C0 1.20889 0.165926 0.8 0.497778 0.48C0.82963 0.16 1.26815 0 1.81333 0C2.35852 0 2.79111 0.16 3.11111 0.48C3.43111 0.8 3.60296 1.20889 3.62667 1.70667Z" fill="#88bf40"/>
<path d="M0.106689 15.7513V4.76465H3.52002V15.7513H0.106689H0.106689Z" fill="#88bf40"/>
<path d="M5.5467 8.28451C5.5467 7.26525 5.52299 6.09192 5.47559 4.76451H8.4267L8.60447 6.2934H8.67559C9.3867 5.10822 10.5126 4.51562 12.0534 4.51562C13.2385 4.51562 14.1926 4.91266 14.9156 5.70674C15.6385 6.50081 16 7.68007 16 9.24451V15.7512H12.5867V9.67118C12.5867 8.08303 12.006 7.28896 10.8445 7.28896C10.0148 7.28896 9.4341 7.71562 9.10225 8.56896C9.03114 8.71118 8.99559 8.99563 8.99559 9.42229V15.7512H5.5467V8.28451Z" fill="#88bf40"/>
</g>
<defs>
<clipPath id="clip0">
<rect width="16" height="16" fill="white"/>
</clipPath>
</defs>
</svg>
